<svg xmlns="http://www.w3.org/2000/svg" xmlns:xlink="http://www.w3.org/1999/xlink" width="1920" height="704" viewBox="0 0 1920 704">
  <defs>
    <clipPath id="clip-path">
      <rect id="Rectangle_926" data-name="Rectangle 926" width="1920" height="704" fill="#fff"/>
    </clipPath>
    <linearGradient id="linear-gradient" x1="0.5" x2="0.5" y2="1" gradientUnits="objectBoundingBox">
      <stop offset="0" stop-color="#bbdfff" stop-opacity="0.502"/>
      <stop offset="1" stop-color="#bbdfff" stop-opacity="0"/>
    </linearGradient>
  </defs>
  <g id="Mask_Group_212" data-name="Mask Group 212" clip-path="url(#clip-path)">
    <path data-name="Union 28" d="M2100,750V300h150V750Zm1-1h148V601H2101Zm0-150h148V451H2101Zm0-150h148V301H2101ZM1950,750H1650V300h0V0h450V300h0V750Zm1-1h148V601H1951Zm-150,0h148V601H1801Zm-150,0h148V601H1651Zm300-150h148V451H1951Zm-150,0h148V451H1801Zm-150,0h148V451H1651Zm300-150h148V301H1951Zm-150,0h148V301H1801Zm-150,0h148V301H1651Zm299-149h0Zm1-1h148V151H1951Zm-150,0h148V151H1801Zm-150,0h148V151H1651Zm300-150h148V1H1951Zm-150,0h148V1H1801Zm-150,0h148V1H1651ZM1500,750H1350V300h0V0h300V300h0V750Zm1-1h148V601H1501Zm-150,0h148V601H1351Zm150-150h148V451H1501Zm-150,0h148V451H1351Zm150-150h148V301H1501Zm-150,0h148V301H1351Zm150-150h148V151H1501Zm-150,0h148V151H1351Zm150-150h148V1H1501Zm-150,0h148V1H1351ZM1200,750H1050V300h0V0h300V300h0V750Zm1-1h148V601H1201Zm-150,0h148V601H1051Zm150-150h148V451H1201Zm-150,0h148V451H1051Zm150-150h148V301H1201Zm-150,0h148V301H1051Zm150-150h148V151H1201Zm-150,0h148V151H1051Zm150-150h148V1H1201Zm-150,0h148V1H1051ZM900,750H750V300h0V0h300V300h0V750Zm1-1h148V601H901Zm-150,0H899V601H751ZM901,599h148V451H901Zm-150,0H899V451H751ZM901,449h148V301H901Zm-150,0H899V301H751ZM901,299h148V151H901Zm-150,0H899V151H751ZM901,149h148V1H901Zm-150,0H899V1H751ZM600,750H450V300h0V0H750V300h0V750Zm1-1H749V601H601Zm-150,0H599V601H451ZM601,599H749V451H601Zm-150,0H599V451H451ZM601,449H749V301H601Zm-150,0H599V301H451ZM601,299H749V151H601Zm-150,0H599V151H451ZM601,149H749V1H601Zm-150,0H599V1H451ZM300,750H150V300h0V0H450V300h0V750Zm1-1H449V601H301Zm-150,0H299V601H151ZM301,599H449V451H301Zm-150,0H299V451H151ZM301,449H449V301H301Zm-150,0H299V301H151ZM301,299H449V151H301Zm-150,0H299V151H151ZM301,149H449V1H301Zm-150,0H299V1H151ZM0,750V300H150V750Zm1-1H149V601H1ZM1,599H149V451H1ZM1,449H149V301H1ZM2100,300V0h150V300Zm1-1h148V151H2101Zm0-150h148V1H2101ZM0,300V0H150V300Zm1-1H149V151H1ZM1,149H149V1H1Z" transform="translate(-229.315 -40.102) rotate(-7)" fill="url(#linear-gradient)"/>
  </g>
</svg>