<svg xmlns="http://www.w3.org/2000/svg" xmlns:xlink="http://www.w3.org/1999/xlink" width="667.833" height="667.833" viewBox="0 0 667.833 667.833">
  <defs>
    <linearGradient id="linear-gradient" x1="0.5" x2="0.5" y2="1" gradientUnits="objectBoundingBox">
      <stop offset="0" stop-color="#bbdfff"/>
      <stop offset="1" stop-color="#fff"/>
    </linearGradient>
  </defs>
  <g id="question_mark_black_24dp" transform="matrix(0.996, -0.087, 0.087, 0.996, -0.037, 53.308)">
    <g transform="translate(0 0.421)">
      <rect id="Rectangle_1136" data-name="Rectangle 1136" width="616.452" height="616.452" fill="none"/>
    </g>
    <g transform="translate(168.199 76.785)">
      <path id="Path_734" data-name="Path 734" d="M123.045,256.327c19.8-35.749,57.867-56.838,79.984-88.472,23.4-33.177,10.287-95.158-56.066-95.158-43.464,0-64.811,32.92-73.812,60.181L6.54,104.845C24.8,50.065,74.437,3,146.706,3,207.144,3,248.551,30.519,269.64,64.981c18,29.576,28.548,84.871.772,126.02-30.862,45.522-60.438,59.41-76.384,88.729-6.43,11.831-9,19.546-9,57.609H110.7C110.443,317.28,107.356,284.617,123.045,256.327ZM198.4,440.214a51.437,51.437,0,1,1-51.437-51.437A51.588,51.588,0,0,1,198.4,440.214Z" transform="translate(-6.54 -3)" fill="url(#linear-gradient)"/>
    </g>
  </g>
</svg>
