<svg xmlns="http://www.w3.org/2000/svg" width="25" height="25" viewBox="0 0 25 25">
  <path id="Union_57" data-name="Union 57" d="M2026,812.5a12.5,12.5,0,1,1,12.5,12.5A12.5,12.5,0,0,1,2026,812.5Zm12.5,9.5a9.5,9.5,0,0,0,7.692-15.07l-2.158,2.158a6.5,6.5,0,0,1-8.945,8.945l-2.158,2.158A9.45,9.45,0,0,0,2038.5,822Zm-9.5-9.5a9.447,9.447,0,0,0,1.809,5.57l2.158-2.158a6.5,6.5,0,0,1,8.945-8.945l2.158-2.158A9.5,9.5,0,0,0,2029,812.5Zm9.5,3.5a3.5,3.5,0,0,0,3.3-4.676l-4.473,4.472A3.483,3.483,0,0,0,2038.5,816Zm-3.5-3.5a3.484,3.484,0,0,0,.2,1.176l4.473-4.472a3.5,3.5,0,0,0-4.676,3.3Z" transform="translate(-2026 -800)" fill="currentColor"/>
</svg>
